<?xml version="1.0" encoding="UTF-8"?><!-- Generator: Adobe Illustrator 18.0.0, SVG Export Plug-In . SVG Version: 6.00 Build 0)  --><svg xmlns="http://www.w3.org/2000/svg" enable-background="new 132.2 9 575.1 575.1" id="Layer_1" version="1.1" viewBox="132.2 9 575.1 575.1" x="0px" xml:space="preserve" y="0px">
<g id="change1">
	<path d="m707.3 496.7c0 48.2-39.2 87.4-87.4 87.4h-400.3c-48.2 0-87.4-39.2-87.4-87.4v-400.3c0-48.2 39.2-87.4 87.4-87.4h400.3c48.2 0 87.4 39.2 87.4 87.4v400.3z" fill="#E52D27"/>
</g>
<g>
	<path d="m623.6 301.1c0 31.8 0 65.5-7.1 96.3-5 21.7-22.7 37.6-44.1 40-50.5 5.6-101.7 5.7-152.6 5.6-51 0-102 0-152.6-5.6-21.3-2.4-39.1-18.3-44.1-40-7.1-30.8-7.1-64.5-7.1-96.3s0.1-65.5 7.1-96.3c5-21.7 22.7-37.6 44.1-40 50.6-5.7 101.7-5.7 152.6-5.7s102 0 152.6 5.7c21.3 2.4 39.1 18.3 44.1 40 7.1 30.8 7.1 64.5 7.1 96.3z" fill="#fff"/>
	<polygon fill="#E52D27" points="376.9 225.3 376.9 377.6 495.2 301.4"/>
</g>
</svg>