<?xml version="1.0" encoding="UTF-8"?><!-- Generator: Adobe Illustrator 18.0.0, SVG Export Plug-In . SVG Version: 6.00 Build 0)  --><svg xmlns="http://www.w3.org/2000/svg" enable-background="new 133.5 10.1 576.2 576.1" id="Layer_1" version="1.1" viewBox="133.5 10.1 576.2 576.1" x="0px" xml:space="preserve" y="0px">
<g id="change1">
	<path d="m709.8 498.7c0 48.3-39.2 87.5-87.5 87.5h-401.3c-48.3 0-87.5-39.2-87.5-87.5v-401.1c0-48.3 39.2-87.5 87.5-87.5h401.1c48.3 0 87.5 39.2 87.5 87.5v401.1h0.2z" fill="#3FC6EE"/>
</g>
<path d="m627.5 192.6c-13.6 6-28.1 10.1-43.3 11.9 15.6-9.3 27.6-24.2 33.2-41.8-14.5 8.7-30.7 14.9-48 18.3-13.8-14.6-33.5-23.8-55.1-23.8-41.7 0-75.5 33.8-75.5 75.5 0 6 0.7 11.7 1.9 17.1-62.7-3.1-118.3-33.2-155.6-78.9-6.4 11.2-10.2 24.2-10.2 38 0 26.2 13.3 49.3 33.6 62.9-12.4-0.4-24-3.8-34.2-9.4v1c0 36.6 26.1 67.1 60.6 74.1-6.3 1.7-13 2.6-19.9 2.6-4.9 0-9.6-0.5-14.2-1.4 9.6 30 37.5 51.8 70.5 52.4-25.8 20.2-58.3 32.3-93.7 32.3-6.1 0-12.1-0.4-18-1.1 33.5 21.4 73.1 33.9 115.7 33.9 138.8 0 214.8-115 214.8-214.8 0-3.2-0.1-6.5-0.2-9.8 14.6-10.5 27.4-23.7 37.6-39z" fill="#fff"/>
</svg>